<?xml version="1.0" standalone="no"?>
<!DOCTYPE svg PUBLIC "-//W3C//DTD SVG 20010904//EN"
 "http://www.w3.org/TR/2001/REC-SVG-20010904/DTD/svg10.dtd">
<svg version="1.0" xmlns="http://www.w3.org/2000/svg"
 width="512.000000pt" height="512.000000pt" viewBox="0 0 512.000000 512.000000"
 preserveAspectRatio="xMidYMid meet">
<metadata>
Created by potrace 1.14, written by Peter Selinger 2001-2017
</metadata>
<g transform="translate(0.000000,512.000000) scale(0.100000,-0.100000)"
fill="#000000" stroke="none">
<path d="M443 5105 c-153 -33 -316 -160 -381 -295 -65 -137 -62 -10 -62 -2257
0 -2241 -3 -2108 62 -2241 45 -92 160 -208 248 -250 137 -65 10 -62 2257 -62
2241 0 2108 -3 2241 62 92 45 208 160 250 248 65 137 62 10 62 2257 0 2241 3
2108 -62 2241 -45 92 -160 208 -248 250 -137 66 -9 62 -2262 61 -1681 0 -2054
-3 -2105 -14z m4272 -576 c52 -13 102 -54 110 -90 6 -24 -1 -32 -72 -81 -131
-92 -224 -171 -327 -278 -182 -190 -433 -527 -545 -733 -16 -29 -70 -126 -121
-217 -94 -169 -243 -460 -298 -585 -47 -107 -166 -391 -197 -471 l-27 -72 65
-123 c36 -68 83 -158 105 -199 21 -41 69 -130 106 -198 71 -131 96 -195 96
-252 0 -70 -56 -110 -154 -110 -59 0 -587 47 -623 55 -12 3 -64 5 -116 6 -143
1 -273 -38 -388 -115 -28 -18 -173 -160 -323 -316 -150 -155 -286 -290 -302
-301 -35 -23 -85 -24 -125 -3 -52 26 -64 67 -183 595 -24 107 -52 220 -60 251
-33 111 -147 264 -248 331 -30 19 -200 106 -378 192 -179 86 -340 168 -358
181 -66 51 -81 129 -36 184 15 17 103 76 198 132 94 55 216 129 271 163 55 34
132 79 170 100 82 45 185 146 234 228 65 110 78 158 116 432 80 583 78 575
134 614 36 26 83 26 136 2 22 -10 154 -119 293 -242 275 -244 360 -312 376
-306 6 3 121 87 256 189 715 536 1349 888 1821 1008 151 39 309 50 394 29z"/>
</g>
</svg>
